# xmcd
#
# Track frame offsets: 
#        150
#        19930
#        39531
#        56987
#        74049
#        90747
#        105642
#        123811
#        142244
#        146778
#        165510
#        183222
#        203197
#        218135
#        234099
#        250760
#        266191
#
# Disc length: 3622 seconds
#
# Revision: 0
# Processed by: cddbd v1.5.2PL0 Copyright (c) Steve Scherf et al.
# Submitted via: ExactAudioCopy v0.99pb5
#
DISCID=020e2411
DTITLE=Diabolic - Liar and a Thief
DYEAR=2010
DGENRE=Hip-Hop
TTITLE0=Stand By
TTITLE1=Frontlines (feat. Immortal Technique)
TTITLE2=Riot (feat. Deadly Hunta and John Otto)
TTITLE3=Reasons
TTITLE4=Soldier's Logic
TTITLE5=Order and Chaos (feat. Ill Bill)
TTITLE6=I Don't Wanna Rhyme
TTITLE7=Truth Part 2
TTITLE8=Nicolai Ros to the Ghoul (Interlude)
TTITLE9=Not Again (feat. Vinnie Paz)
TTITLE10=Loose Cannon
TTITLE11=12 Shots (feat. Nate Augustus)
TTITLE12=In Common (feat. Canibus)
TTITLE13=Modern Day Future (feat. Deadly Hunta)
TTITLE14=Behind Bars
TTITLE15=Right Here
TTITLE16=Self Destruction (Outro)
EXTD=
EXTT0=
EXTT1=
EXTT2=
EXTT3=
EXTT4=
EXTT5=
EXTT6=
EXTT7=
EXTT8=
EXTT9=
EXTT10=
EXTT11=
EXTT12=
EXTT13=
EXTT14=
EXTT15=
EXTT16=
PLAYORDER=
